<?xml version="1.0" encoding="utf-8"?>
<!-- Generator: Adobe Illustrator 27.5.0, SVG Export Plug-In . SVG Version: 6.00 Build 0)  -->
<svg version="1.1" xmlns="http://www.w3.org/2000/svg" xmlns:xlink="http://www.w3.org/1999/xlink" x="0px" y="0px"
	 viewBox="0 0 500 500" style="enable-background:new 0 0 500 500;" xml:space="preserve">
<g id="Background_Complete">
	<g>
		<rect y="382.398" style="fill:#EBEBEB;" width="500" height="0.25"/>
		<rect x="333.333" y="389.208" style="fill:#EBEBEB;" width="73.789" height="0.25"/>
		<rect x="103.615" y="390.888" style="fill:#EBEBEB;" width="8.693" height="0.25"/>
		<rect x="408.123" y="398.494" style="fill:#EBEBEB;" width="19.192" height="0.25"/>
		<rect x="200" y="395.111" style="fill:#EBEBEB;" width="48.667" height="0.25"/>
		<rect x="166.717" y="395.111" style="fill:#EBEBEB;" width="24.379" height="0.25"/>
		<rect x="52.459" y="390.888" style="fill:#EBEBEB;" width="33.147" height="0.25"/>
		<path style="fill:#EBEBEB;" d="M237.014,337.8H43.915c-3.147,0-5.708-2.561-5.708-5.708V60.66c0-3.147,2.561-5.708,5.708-5.708
			h193.099c3.146,0,5.707,2.561,5.707,5.708v271.432C242.721,335.239,240.16,337.8,237.014,337.8z M43.915,55.203
			c-3.01,0-5.458,2.448-5.458,5.458v271.432c0,3.01,2.448,5.458,5.458,5.458h193.099c3.009,0,5.457-2.448,5.457-5.458V60.66
			c0-3.009-2.448-5.458-5.457-5.458H43.915z"/>
		<path style="fill:#EBEBEB;" d="M453.31,337.8H260.212c-3.147,0-5.707-2.561-5.707-5.708V60.66c0-3.147,2.561-5.708,5.707-5.708
			H453.31c3.148,0,5.708,2.561,5.708,5.708v271.432C459.019,335.239,456.458,337.8,453.31,337.8z M260.212,55.203
			c-3.009,0-5.457,2.448-5.457,5.458v271.432c0,3.01,2.448,5.458,5.457,5.458H453.31c3.01,0,5.458-2.448,5.458-5.458V60.66
			c0-3.009-2.448-5.458-5.458-5.458H260.212z"/>
	</g>
	<g>
		<g>
			<g>
				<g>
					
						<rect x="76.005" y="94.688" transform="matrix(-1 -1.224647e-16 1.224647e-16 -1 305.9944 369.8144)" style="fill:#E6E6E6;" width="153.985" height="180.438"/>
					
						<rect x="72.576" y="94.688" transform="matrix(-1 -1.224647e-16 1.224647e-16 -1 299.137 369.8144)" style="fill:#F5F5F5;" width="153.985" height="180.438"/>
					
						<rect x="76.005" y="275.126" transform="matrix(-1 -1.224647e-16 1.224647e-16 -1 305.9944 556.0939)" style="fill:#E6E6E6;" width="153.985" height="5.842"/>
					
						<rect x="66.422" y="275.126" transform="matrix(-1 -1.224647e-16 1.224647e-16 -1 286.8282 556.0939)" style="fill:#F5F5F5;" width="153.985" height="5.842"/>
					
						<rect x="65.096" y="114.069" transform="matrix(-1.836970e-16 1 -1 -1.836970e-16 334.4757 35.3386)" style="fill:#FAFAFA;" width="168.945" height="141.676"/>
					<polygon style="fill:#FFFFFF;" points="206.492,269.379 182.194,100.435 143.414,100.435 167.712,269.379 					"/>
					<polygon style="fill:#FFFFFF;" points="158.664,269.379 134.366,100.435 107.663,100.435 131.961,269.379 					"/>
					
						<rect x="-4.446" y="183.611" transform="matrix(-1.836970e-16 1 -1 -1.836970e-16 264.9337 104.8807)" style="fill:#E6E6E6;" width="168.945" height="2.592"/>
					
						<rect x="75.122" y="245.764" transform="matrix(-1 -1.224647e-16 1.224647e-16 -1 299.137 499.2422)" style="fill:#F5F5F5;" width="148.894" height="7.715"/>
				</g>
			</g>
		</g>
		<g>
			<g>
				
					<rect x="287.721" y="144.333" transform="matrix(-1 -1.224647e-16 1.224647e-16 -1 599.2016 526.7317)" style="fill:#E6E6E6;" width="23.76" height="238.065"/>
				<polygon style="fill:#F0F0F0;" points="292.234,382.398 287.721,382.398 287.721,369.562 296.965,369.562 				"/>
				
					<rect x="407.152" y="144.333" transform="matrix(-1 -1.224647e-16 1.224647e-16 -1 838.0633 526.7317)" style="fill:#E6E6E6;" width="23.76" height="238.065"/>
				
					<rect x="287.721" y="144.333" transform="matrix(-1 -1.224647e-16 1.224647e-16 -1 698.8108 520.4116)" style="fill:#F0F0F0;" width="123.369" height="231.745"/>
				<path style="fill:#E0E0E0;" d="M343.713,358.997h-48.314c-2.592,0-4.7-2.108-4.7-4.701v-202.04c0-2.592,2.108-4.702,4.7-4.702
					h48.314c2.593,0,4.701,2.109,4.701,4.702v202.04C348.414,356.889,346.306,358.997,343.713,358.997z M295.399,148.601
					c-2.015,0-3.653,1.64-3.653,3.654v202.04c0,2.015,1.639,3.654,3.653,3.654h48.314c2.015,0,3.654-1.64,3.654-3.654v-202.04
					c0-2.015-1.64-3.654-3.654-3.654H295.399z"/>
				<path style="fill:#E0E0E0;" d="M403.412,358.997h-48.314c-2.592,0-4.7-2.108-4.7-4.701V152.255c0-2.592,2.108-4.701,4.7-4.701
					h48.314c2.593,0,4.701,2.109,4.701,4.701v202.041C408.113,356.889,406.004,358.997,403.412,358.997z M355.097,148.601
					c-2.015,0-3.653,1.639-3.653,3.654v202.041c0,2.015,1.639,3.654,3.653,3.654h48.314c2.015,0,3.654-1.64,3.654-3.654V152.255
					c0-2.015-1.64-3.654-3.654-3.654H355.097z"/>
				<path style="fill:#FAFAFA;" d="M363.595,254.012c0,2.216-1.796,4.012-4.012,4.012s-4.012-1.796-4.012-4.012
					c0-2.216,1.796-4.012,4.012-4.012S363.595,251.796,363.595,254.012z"/>
				<path style="fill:#FAFAFA;" d="M343.239,254.012c0,2.216-1.796,4.012-4.012,4.012s-4.012-1.796-4.012-4.012
					c0-2.216,1.796-4.012,4.012-4.012S343.239,251.796,343.239,254.012z"/>
				<polygon style="fill:#F0F0F0;" points="406.577,382.398 411.09,382.398 411.09,369.562 401.845,369.562 				"/>
			</g>
			<g>
				<polygon style="fill:#E6E6E6;" points="364.509,110.11 326.658,110.11 342.436,104.749 380.287,104.749 				"/>
				
					<rect x="373.547" y="110.111" transform="matrix(-1 -1.224647e-16 1.224647e-16 -1 784.945 254.4444)" style="fill:#EBEBEB;" width="37.851" height="34.222"/>
				
					<rect x="320.299" y="127.881" transform="matrix(-1 -1.224647e-16 1.224647e-16 -1 650.7139 272.2139)" style="fill:#EBEBEB;" width="10.115" height="16.453"/>
				<rect x="307.769" y="127.881" style="fill:#F5F5F5;" width="12.53" height="16.453"/>
				<polygon style="fill:#EBEBEB;" points="373.547,110.111 411.398,110.111 395.62,106.556 357.769,106.556 				"/>
				<rect x="326.658" y="110.111" style="fill:#F5F5F5;" width="46.889" height="34.222"/>
			</g>
		</g>
		<g>
			<polygon style="fill:#F5F5F5;" points="177.891,382.398 210.352,382.398 206.52,304.289 177.891,304.289 			"/>
			<g>
				<polygon style="fill:#E6E6E6;" points="75.236,382.398 199.884,382.398 208.499,301.667 83.851,301.667 				"/>
				<polygon style="fill:#F0F0F0;" points="71.627,382.398 196.275,382.398 204.89,301.667 80.242,301.667 				"/>
				<polygon style="fill:#FAFAFA;" points="190.423,373.461 198.303,310.603 86.097,310.603 78.217,373.461 				"/>
			</g>
		</g>
	</g>
</g>
<g id="Background_Simple" style="display:none;">
	<g style="display:inline;">
		<path style="fill:#407BFF;" d="M371.161,160.387c-21.175-16.064-42.19,8.867-64.418,10.966
			c-26.646,2.516-35.317-7.522-52.708-23.087c-25.655-22.961-52.452-53.2-92.667-48.943
			c-107.985,11.43-100.914,132.37-40.329,183.794c39.291,33.349,80.98,11.204,129.357,11.938
			c43.61,0.662,112.94,37.415,155.237,11.734c37.676-22.875,25.111-74.352-12.728-85.781c-12.248-3.699-19.677-13.911-18.468-26.328
			C375.572,183.012,382.496,168.987,371.161,160.387z"/>
		<path style="opacity:0.9;fill:#FFFFFF;" d="M371.161,160.387c-21.175-16.064-42.19,8.867-64.418,10.966
			c-26.646,2.516-35.317-7.522-52.708-23.087c-25.655-22.961-52.452-53.2-92.667-48.943
			c-107.985,11.43-100.914,132.37-40.329,183.794c39.291,33.349,80.98,11.204,129.357,11.938
			c43.61,0.662,112.94,37.415,155.237,11.734c37.676-22.875,25.111-74.352-12.728-85.781c-12.248-3.699-19.677-13.911-18.468-26.328
			C375.572,183.012,382.496,168.987,371.161,160.387z"/>
	</g>
</g>
<g id="Shadow_1_">
	<ellipse id="_x3C_Path_x3E__361_" style="fill:#F5F5F5;" cx="250" cy="416.238" rx="193.889" ry="11.323"/>
</g>
<g id="Browser">
	<g>
		
			<rect x="348.163" y="174.605" transform="matrix(0.05 -0.9987 0.9987 0.05 167.1339 525.9984)" style="fill:#407BFF;" width="23.811" height="1.074"/>
		
			<rect x="354.711" y="195.713" transform="matrix(0.05 -0.9987 0.9987 0.05 145.0426 544.9875)" style="fill:#407BFF;" width="8.584" height="1.074"/>
		<path style="fill:#407BFF;" d="M334.221,355.346H231.995c-7.441,0-13.223-6.089-12.848-13.53l11.399-226
			c0.375-7.441,6.771-13.53,14.212-13.53h102.226c7.441,0,13.223,6.089,12.848,13.53l-11.399,226
			C348.058,349.257,341.663,355.346,334.221,355.346z"/>
		<path style="opacity:0.2;fill:#FFFFFF;" d="M306.707,333.86h-30.832c-4.563,0-8.779-1.789-11.869-5.039
			c-3.096-3.256-4.674-7.566-4.443-12.138l5.473-108.504c0.476-9.44,8.545-17.121,17.985-17.121h30.832
			c4.563,0,8.779,1.79,11.869,5.04c3.096,3.255,4.674,7.566,4.443,12.138l-5.473,108.504
			C324.216,326.181,316.148,333.86,306.707,333.86z M283.021,192.186c-8.85,0-16.413,7.2-16.858,16.05L260.69,316.74
			c-0.215,4.26,1.253,8.274,4.134,11.304c2.875,3.023,6.8,4.689,11.052,4.689h30.832c8.85,0,16.413-7.2,16.858-16.05l5.473-108.504
			c0.215-4.26-1.253-8.275-4.134-11.304c-2.875-3.024-6.8-4.689-11.052-4.689H283.021z"/>
		<path style="opacity:0.1;" d="M280.835,221.035h-26.058c-7.442,0-13.223-6.088-12.848-13.53l1.314-26.058
			c0.375-7.442,6.771-13.53,14.212-13.53h26.058c7.441,0,13.223,6.088,12.848,13.53l-1.314,26.058
			C294.672,214.946,288.276,221.035,280.835,221.035z"/>
		<path style="fill:#FFFFFF;" d="M273.248,213.044H247.19c-7.441,0-13.223-6.089-12.848-13.53l1.314-26.058
			c0.375-7.441,6.771-13.53,14.212-13.53h26.058c7.441,0,13.223,6.089,12.848,13.53l-1.314,26.058
			C287.085,206.956,280.689,213.044,273.248,213.044z"/>
		<path style="opacity:0.1;" d="M317.434,321.842h-18.566c-5.302,0-9.421-4.338-9.154-9.64l0.936-18.566
			c0.267-5.302,4.824-9.64,10.126-9.64h18.566c5.302,0,9.421,4.338,9.154,9.64l-0.936,18.566
			C327.292,317.504,322.736,321.842,317.434,321.842z"/>
		<path style="fill:#FFFFFF;" d="M312.028,316.149h-18.566c-5.302,0-9.421-4.338-9.154-9.64l0.936-18.566
			c0.267-5.302,4.824-9.64,10.126-9.64h18.566c5.302,0,9.421,4.338,9.154,9.64l-0.936,18.566
			C321.887,311.811,317.33,316.149,312.028,316.149z"/>
		<path style="fill:#FFFFFF;" d="M250.146,259.922h-13.398c-3.826,0-6.799-3.131-6.606-6.957l0.676-13.398
			c0.193-3.826,3.481-6.957,7.308-6.957h13.398c3.826,0,6.799,3.131,6.606,6.957l-0.676,13.398
			C257.261,256.791,253.972,259.922,250.146,259.922z"/>
		<path style="fill:#FFFFFF;" d="M336.085,259.922h-13.398c-3.826,0-6.799-3.131-6.606-6.957l0.676-13.398
			c0.193-3.826,3.482-6.957,7.308-6.957h13.398c3.826,0,6.799,3.131,6.606,6.957l-0.676,13.398
			C343.2,256.791,339.911,259.922,336.085,259.922z"/>
		<path style="fill:#FFFFFF;" d="M293.116,259.922h-13.398c-3.826,0-6.799-3.131-6.606-6.957l0.676-13.398
			c0.193-3.826,3.482-6.957,7.308-6.957h13.398c3.826,0,6.799,3.131,6.606,6.957l-0.676,13.398
			C300.23,256.791,296.942,259.922,293.116,259.922z"/>
		<path style="fill:#FFFFFF;" d="M342.959,141.685h-98.148c-4.153,0-7.38-3.398-7.171-7.552l0.009-0.181
			c0.209-4.153,3.779-7.552,7.932-7.552h98.148c4.153,0,7.38,3.398,7.171,7.552l-0.009,0.181
			C350.682,138.287,347.112,141.685,342.959,141.685z"/>
		<polygon style="fill:#407BFF;" points="338.553,129.754 339.804,132.578 342.898,133.031 340.532,135.229 340.908,138.333 
			338.194,136.867 335.333,138.333 336.022,135.229 333.878,133.031 337.017,132.578 		"/>
		<path style="opacity:0.1;fill:#407BFF;" d="M250.486,134.043c-0.079,1.557-1.404,2.819-2.961,2.819
			c-1.557,0-2.755-1.262-2.676-2.819c0.079-1.557,1.404-2.819,2.961-2.819C249.366,131.225,250.564,132.486,250.486,134.043z"/>
		<path style="opacity:0.1;fill:#407BFF;" d="M257.721,134.043c-0.078,1.557-1.404,2.819-2.961,2.819
			c-1.557,0-2.755-1.262-2.676-2.819c0.078-1.557,1.404-2.819,2.961-2.819C256.601,131.225,257.8,132.486,257.721,134.043z"/>
		<path style="opacity:0.1;fill:#407BFF;" d="M264.957,134.043c-0.079,1.557-1.404,2.819-2.961,2.819
			c-1.557,0-2.755-1.262-2.676-2.819c0.078-1.557,1.404-2.819,2.961-2.819C263.837,131.225,265.035,132.486,264.957,134.043z"/>
		<polygon style="opacity:0.2;fill:#FFFFFF;" points="286.239,114.454 291.905,118.894 292.352,110.015 		"/>
		<polygon style="opacity:0.2;fill:#FFFFFF;" points="304.278,114.454 298.165,118.894 298.613,110.015 		"/>
		<path style="opacity:0.2;fill:#FFFFFF;" d="M339.353,175.624h-35.704c-0.777,0-1.496-0.305-2.022-0.859
			c-0.527-0.555-0.797-1.289-0.757-2.067c0.079-1.598,1.445-2.898,3.044-2.898h35.704c0.777,0,1.495,0.305,2.022,0.859
			c0.527,0.555,0.797,1.289,0.758,2.068C342.317,174.323,340.952,175.624,339.353,175.624z M303.914,170.362
			c-1.303,0-2.416,1.06-2.481,2.363c-0.031,0.623,0.183,1.209,0.603,1.651c0.42,0.441,0.993,0.684,1.614,0.684h35.704
			c1.303,0,2.416-1.06,2.482-2.363c0.031-0.623-0.184-1.209-0.604-1.651c-0.419-0.441-0.992-0.684-1.613-0.684H303.914z"/>
		<path style="opacity:0.2;fill:#FFFFFF;" d="M338.95,183.614h-35.704c-0.777,0-1.495-0.305-2.022-0.859
			c-0.527-0.555-0.797-1.289-0.757-2.067c0.081-1.598,1.446-2.898,3.045-2.898h35.704c0.777,0,1.495,0.305,2.022,0.859
			c0.527,0.555,0.797,1.29,0.757,2.067C341.914,182.314,340.548,183.614,338.95,183.614z M303.511,178.352
			c-1.303,0-2.416,1.06-2.483,2.363c-0.031,0.623,0.183,1.209,0.603,1.651c0.42,0.441,0.993,0.684,1.614,0.684h35.704
			c1.303,0,2.416-1.06,2.483-2.363c0.031-0.622-0.183-1.208-0.603-1.65c-0.419-0.441-0.992-0.685-1.613-0.685H303.511z"/>
		<path style="opacity:0.2;fill:#FFFFFF;" d="M241.958,319.551c-0.777,0-1.496-0.306-2.022-0.859
			c-0.527-0.556-0.797-1.29-0.757-2.068l1.801-35.704c0.081-1.598,1.446-2.898,3.045-2.898c0.777,0,1.495,0.306,2.023,0.86
			c0.527,0.555,0.797,1.289,0.757,2.067l-1.801,35.704C244.922,318.25,243.557,319.551,241.958,319.551z M244.025,278.585
			c-1.303,0-2.416,1.06-2.482,2.363l-1.801,35.704l0,0c-0.031,0.622,0.183,1.208,0.603,1.65c0.42,0.441,0.993,0.684,1.614,0.684
			c1.303,0,2.416-1.06,2.482-2.363l1.801-35.704c0.031-0.622-0.183-1.208-0.602-1.65
			C245.219,278.827,244.646,278.585,244.025,278.585z M239.46,316.638h0.007H239.46z"/>
	</g>
</g>
<g id="Character_1_">
	<g>
		<g>
			<g>
				<path style="fill:#FFC3BD;" d="M148.379,207.942l4.773,4.159l-8.813,3.984c0,0-0.428-2.071-0.669-5.296
					c-0.1-1.347,0.891-2.529,2.237-2.641L148.379,207.942z"/>
				<polygon style="fill:#FFC3BD;" points="154.919,220.564 147.108,220.563 144.339,216.086 153.152,212.102 				"/>
			</g>
			<g>
				<g>
					<line style="opacity:0.2;" x1="116.54" y1="139.01" x2="116.54" y2="139.01"/>
				</g>
			</g>
			<g>
				<g>
					<path style="fill:#FFC3BD;" d="M199.557,145.9c3.335,4.22,6.789,8.551,10.243,12.747c3.452,4.219,6.979,8.356,10.6,12.238
						l1.368,1.425l0.52,0.53c0.107,0.13,0.303,0.271,0.46,0.413c0.701,0.569,1.648,1.188,2.683,1.748
						c2.09,1.119,4.491,2.135,6.961,3.043c4.945,1.82,10.249,3.402,15.456,4.866l-0.769,5.876
						c-5.808-0.116-11.451-0.698-17.218-1.911c-2.877-0.626-5.77-1.385-8.737-2.595c-1.487-0.612-3.007-1.307-4.574-2.355
						c-0.397-0.278-0.782-0.522-1.189-0.864l-0.599-0.489l-0.429-0.38l-1.64-1.469c-4.288-3.953-8.205-8.107-11.959-12.37
						c-3.759-4.283-7.289-8.626-10.722-13.242L199.557,145.9z"/>
				</g>
				<polygon style="fill:#FFC3BD;" points="257.207,181.926 259.353,190.193 250.966,189.721 252.867,180.501 				"/>
				<path style="fill:#FFC3BD;" d="M245.547,182.909l7.32-2.408l-1.901,9.22c0,0-6.469,1.893-8.789-2.838L245.547,182.909z"/>
				<path style="fill:#FFC3BD;" d="M157.749,149.427c-1.514,5.217-3.111,10.457-4.73,15.647l-2.402,7.771l-1.153,3.852l-0.55,1.897
					l-0.464,1.729c-0.183,0.676-0.278,1.845-0.322,3.013c-0.04,1.188-0.019,2.451,0.036,3.731c0.123,2.571,0.327,5.224,0.602,7.886
					c0.547,5.323,1.204,10.763,1.861,16.14l-5.745,1.456c-1.969-5.28-3.626-10.577-4.965-16.068
					c-0.654-2.747-1.263-5.525-1.699-8.415c-0.212-1.451-0.395-2.926-0.505-4.482c-0.103-1.572-0.153-3.163,0.134-5.193
					c0.081-0.575,0.14-0.823,0.208-1.212l0.2-1.081l0.424-2.102c0.286-1.385,0.606-2.756,0.927-4.113
					c0.636-2.721,1.312-5.413,2.031-8.086c1.419-5.358,2.97-10.635,4.682-15.909L157.749,149.427z"/>
				<path style="fill:#263238;" d="M186.912,114.409c-0.132,0.623,0.088,1.211,0.491,1.313s0.838-0.321,0.97-0.944
					c0.132-0.623-0.088-1.211-0.491-1.313C187.478,113.363,187.044,113.786,186.912,114.409z"/>
				<path style="fill:#ED847E;" d="M186.943,115.606c0,0,0.642,3.95,1.819,6.075c-1.31,0.753-3.067-0.186-3.067-0.186
					L186.943,115.606z"/>
				<path style="fill:#263238;" d="M188.562,110.626c0.118,0,0.234-0.056,0.307-0.16c0.118-0.169,0.077-0.402-0.092-0.521
					c-0.061-0.042-1.503-1.029-3.386-0.255c-0.191,0.079-0.282,0.297-0.204,0.488c0.079,0.191,0.297,0.283,0.488,0.204
					c1.509-0.622,2.661,0.168,2.672,0.176C188.413,110.604,188.488,110.626,188.562,110.626z"/>
				<path style="fill:#FFC3BD;" d="M165.477,116.391c-0.697,7.259,0.332,14.287-1.293,20.599c0,0,1.805,5.857,12.534,5.857
					c11.798,0,5.412-5.857,5.412-5.857c-6.498-1.538-6.517-6.315-5.568-10.802L165.477,116.391z"/>
				<path style="fill:#407BFF;" d="M161.898,139.001c-0.917-1.854-1.526-4.479,0.375-5.144c2.091-0.731,13.256-0.974,17.308,0.398
					c4.052,1.373,3.063,5.133,3.063,5.133L161.898,139.001z"/>
				<path style="fill:#407BFF;" d="M140.457,402.693c-0.776-0.184-1.575-0.543-2.125-0.821c-0.073-0.037-0.117-0.115-0.111-0.197
					c0.006-0.082,0.06-0.153,0.138-0.179c0.351-0.119,3.452-1.142,4.267-0.445c0.126,0.108,0.265,0.307,0.208,0.643
					c-0.077,0.451-0.299,0.772-0.66,0.953C141.718,402.876,141.095,402.844,140.457,402.693z M138.974,401.729
					c1.357,0.623,2.466,0.83,3.016,0.553c0.242-0.121,0.385-0.337,0.44-0.657c0.027-0.157-0.023-0.223-0.07-0.263
					C141.936,401,140.225,401.353,138.974,401.729z"/>
				<path style="fill:#407BFF;" d="M138.377,401.889c-0.038-0.009-0.073-0.029-0.101-0.058c-0.052-0.054-0.07-0.132-0.047-0.203
					c0.032-0.101,0.805-2.475,1.969-3.041c0.303-0.147,0.608-0.166,0.907-0.055h0c0.461,0.171,0.517,0.493,0.509,0.671
					c-0.044,0.978-2.158,2.419-3.138,2.685C138.444,401.896,138.41,401.896,138.377,401.889z M140.876,398.887
					c-0.164-0.039-0.327-0.017-0.498,0.066c-0.746,0.363-1.348,1.711-1.613,2.395c1.018-0.451,2.416-1.587,2.442-2.165
					c0.002-0.053,0.008-0.176-0.243-0.269l0,0C140.935,398.903,140.905,398.894,140.876,398.887z"/>
				<path style="fill:#407BFF;" d="M195.08,408.795c-0.798,0-1.658-0.165-2.257-0.31c-0.08-0.019-0.141-0.085-0.154-0.166
					s0.024-0.162,0.093-0.206c0.314-0.197,3.096-1.905,4.05-1.415c0.148,0.076,0.329,0.238,0.35,0.578
					c0.029,0.457-0.113,0.82-0.422,1.08C196.35,408.683,195.737,408.795,195.08,408.795z M193.416,408.198
					c1.464,0.294,2.59,0.24,3.062-0.156c0.207-0.174,0.298-0.416,0.277-0.741c-0.01-0.159-0.074-0.212-0.129-0.24
					C196.131,406.807,194.546,407.544,193.416,408.198z"/>
				<path style="fill:#407BFF;" d="M192.871,408.491c-0.039,0-0.077-0.011-0.111-0.033c-0.063-0.041-0.098-0.113-0.092-0.187
					c0.008-0.106,0.214-2.594,1.216-3.413c0.261-0.213,0.554-0.302,0.87-0.263c0,0,0,0,0,0c0.488,0.06,0.617,0.361,0.65,0.535
					c0.182,0.961-1.543,2.851-2.435,3.335C192.938,408.483,192.905,408.491,192.871,408.491z M194.612,404.995
					c-0.168,0-0.322,0.059-0.469,0.179c-0.643,0.525-0.918,1.975-1.018,2.702c0.887-0.674,1.986-2.101,1.878-2.669
					c-0.01-0.052-0.033-0.173-0.298-0.206l0,0C194.673,404.997,194.643,404.995,194.612,404.995z"/>
				<polygon style="fill:#FFC3BD;" points="183.588,408.179 191.481,408.179 191.562,389.9 183.669,389.9 				"/>
				<polygon style="fill:#FFC3BD;" points="128.593,401.416 136.192,402.809 141.643,384.822 134.044,383.429 				"/>
				<path style="fill:#263238;" d="M137.638,400.787l-8.63-2.041c-0.314-0.074-0.629,0.082-0.758,0.375l-2.868,6.531
					c-0.298,0.678,0.126,1.485,0.854,1.644c3.023,0.66,4.521,0.828,8.316,1.725c2.335,0.552,7.097,1.934,10.321,2.697
					c3.153,0.746,4.276-2.355,3.013-2.959c-5.662-2.706-7.538-5.035-9.096-7.202C138.51,401.167,138.097,400.895,137.638,400.787z"
					/>
				<path style="fill:#263238;" d="M191.394,407.265l-8.62,0c-0.323,0-0.593,0.224-0.651,0.539l-1.288,7.016
					c-0.133,0.727,0.445,1.417,1.19,1.404c3.107-0.053,7.593-0.235,11.501-0.235c4.57,0,6.198,0.249,11.557,0.249
					c3.24,0,4.013-3.276,2.645-3.573c-6.227-1.351-8.946-1.496-14.409-4.786C192.725,407.522,192.075,407.265,191.394,407.265z"/>
				<path style="fill:#263238;" d="M149.661,139.856c-7.7,7.349-9.99,23.836-9.99,23.836l13.915,6.82c0,0,4.233-8.511,6.876-17.753
					C163.23,143.075,155.228,134.543,149.661,139.856z"/>
				<path style="opacity:0.2;" d="M156.576,150.753l-7.083,17.732l4.089,2.028c0,0,2.285-4.609,4.56-10.724L156.576,150.753z"/>
				<path style="fill:#263238;" d="M198.366,174.033c-0.058,8.81-0.59,19.769-1.903,33.371h-42.225
					c-0.517-6.2,2.073-35.431-4.21-64.698c-0.468-2.181,0.988-4.306,3.192-4.648c2.691-0.418,6.369-0.897,9.968-1.071
					c5.384-0.258,13.188-0.43,17.943,0c6.275,0.57,12.225,2.192,12.225,2.192s3.611,3.911,4.706,22.251
					C198.277,165.051,198.395,169.219,198.366,174.033z"/>
				<path style="fill:#407BFF;" d="M158.284,136.796l-1.848,0.219c-0.31,0.037-0.528,0.318-0.481,0.626
					c0.574,3.764,5.367,26.205,40.962,58.974c0.34,0.313,0.9,0.097,0.932-0.364l0.142-2.074c0.011-0.167-0.056-0.331-0.179-0.444
					c-35.85-32.78-38.699-52.819-38.914-56.42C158.88,136.993,158.601,136.758,158.284,136.796z"/>
				<path style="fill:#407BFF;" d="M181.132,179.741l16.206,15.582l-1.874,1.178c-2.485,1.563-5.628,1.633-8.181,0.184l-4.278-2.429
					c-3.343-1.898-4.855-5.911-3.596-9.544L181.132,179.741z"/>
				<path style="fill:#263238;" d="M186.49,193.712c0.137,0.314,0.79,0.26,1.457-0.12c0.668-0.38,1.098-0.942,0.96-1.255
					s-0.79-0.26-1.457,0.12C186.782,192.837,186.352,193.399,186.49,193.712z"/>
				<path style="opacity:0.2;" d="M198.366,174.033c-2.555-4.663-7.192-14.021-6.538-19.35l6.234,6.747
					C198.277,165.051,198.395,169.219,198.366,174.033z"/>
				<path style="fill:#263238;" d="M185.075,146.32c-0.667,7.486,16.385,25.612,16.385,25.612l13.668-11.133
					c0,0-5.62-9.739-12.775-16.658C194.364,136.416,185.826,137.889,185.075,146.32z"/>
				<g style="opacity:0.2;">
					<polygon points="191.56,389.905 191.52,400.063 183.624,400.063 183.664,389.905 					"/>
					<polygon points="134.04,383.434 141.643,384.827 138.829,394.098 131.227,392.704 					"/>
				</g>
				<path style="fill:#FFC3BD;" d="M166.604,107.888c-1.156,7.772-2.223,12.248,0.773,17.144c4.507,7.364,14.607,6.222,18.035-0.962
					c3.085-6.466,4.458-18.09-2.317-23.011C176.419,96.212,167.76,100.116,166.604,107.888z"/>
				<path style="fill:#263238;" d="M180.61,115.084c-0.06,2.209-5.73,9.431-10.565,10.326c-5.23,0.969-6.571-0.507-7.402-7.64
					c-0.955-8.199-3.701-8.199-4.895-13.43c-1.504-6.591,4.954-12.595,12.595-8.954c6.615,3.153,12.741-3.048,17.299-4.895
					c4.558-1.846,5.264,3.432,2.22,6.984c-3.009,3.511,1.765,1.367,3.164,2.865c2.507,2.686-1.597,8.71-11.83,11.102
					C182.953,113.335,180.61,115.084,180.61,115.084z"/>
				<path style="fill:#FFC3BD;" d="M178.206,112.686c-0.006,2.07,0.815,4.098,1.868,5.476c1.585,2.072,3.434,1.062,3.88-1.228
					c0.401-2.061,0.059-5.623-1.957-6.879C180.01,108.819,178.213,110.32,178.206,112.686z"/>
				<g>
					<path style="fill:#407BFF;" d="M181.485,207.404c0,0-6.629,60.32-10.674,82.919c-4.43,24.747-27.37,102.425-27.37,102.425
						l-14.14-3.011c0,0,15.79-72.669,17.917-97.17c2.308-26.592,7.025-85.162,7.025-85.162H181.485z"/>
					<path style="opacity:0.15;fill:#FFFFFF;" d="M181.485,207.404c0,0-6.629,60.32-10.674,82.919
						c-4.43,24.747-27.37,102.425-27.37,102.425l-14.14-3.011c0,0,15.79-72.669,17.917-97.17
						c2.308-26.592,7.025-85.162,7.025-85.162H181.485z"/>
				</g>
				<path style="fill:#263238;" d="M146.607,387.976c0.06,0.013-2.406,5.163-2.406,5.163l-15.908-3.388l1.137-4.823L146.607,387.976
					z"/>
				<path style="opacity:0.2;" d="M176.653,228.896c-10.279,2.031-7.692,40.656-5.678,60.522
					c2.445-14.043,5.774-41.064,8.021-60.243C178.295,228.832,177.517,228.724,176.653,228.896z"/>
				<g>
					<path style="fill:#407BFF;" d="M196.461,207.404c0,0,3.366,59.015,3.436,83.085c0.074,25.036-5.506,107.013-5.506,107.013
						H181.02c0,0-3.599-80.514-5.144-105.102c-1.683-26.806-7.167-84.996-7.167-84.996H196.461z"/>
					<path style="opacity:0.15;fill:#FFFFFF;" d="M196.461,207.404c0,0,3.366,59.015,3.436,83.085
						c0.074,25.036-5.506,107.013-5.506,107.013H181.02c0,0-3.599-80.514-5.144-105.102c-1.683-26.806-7.167-84.996-7.167-84.996
						H196.461z"/>
				</g>
				<path style="fill:#263238;" d="M196.758,392.176c0.062,0-0.54,5.551-0.54,5.551h-16.265l-0.631-4.954L196.758,392.176z"/>
			</g>
		</g>
	</g>
</g>
</svg>
